<svg xmlns="http://www.w3.org/2000/svg"  viewBox="0 0 50 50" width="100px" height="100px"><path d="M 19.441406 1 C 18.153771 1 17.002646 1.8304098 16.595703 3.0527344 L 15.927734 5.0527344 C 15.290522 6.9673297 16.757399 9 18.775391 9 L 20 9 L 20 12 L 17.480469 12 C 14.795974 12 12.422021 13.775887 11.625 16.359375 L 11.625 16.361328 L 9.3046875 23.894531 C 8.1843321 27.532415 7.7621079 29.526442 8.1425781 33.390625 L 8.4042969 36.050781 C 8.1542036 36.021003 7.9027146 36 7.6484375 36 C 5.4671308 36 3.7349509 37.933275 4.0332031 40.085938 L 4.4589844 43.142578 C 4.6203296 44.301203 5.3435291 45.307724 6.3867188 45.84375 L 11.734375 48.591797 C 12.255117 48.859725 12.833043 49 13.419922 49 L 36.580078 49 C 37.166957 49 37.745035 48.860355 38.265625 48.591797 L 43.611328 45.84375 C 44.654518 45.307724 45.37967 44.301203 45.541016 43.142578 L 45.964844 40.085938 C 46.264507 37.933059 44.53287 36 42.351562 36 C 42.097285 36 41.845855 36.021036 41.595703 36.050781 L 41.855469 33.390625 C 42.235939 29.526442 41.813719 27.532415 40.693359 23.894531 L 38.373047 16.361328 C 37.57811 13.776891 35.202073 12 32.517578 12 L 30 12 L 30 9 L 31.224609 9 C 33.242601 9 34.709478 6.9673297 34.072266 5.0527344 L 33.404297 3.0527344 L 33.404297 3.0507812 C 32.997124 1.8300059 31.84568 1 30.558594 1 L 19.441406 1 z M 19.441406 3 L 30.558594 3 C 30.992958 3 31.370524 3.2712213 31.507812 3.6835938 L 32.173828 5.6835938 C 32.398615 6.3589983 31.936618 7 31.224609 7 L 18.775391 7 C 18.063382 7 17.601385 6.3589984 17.826172 5.6835938 L 18.492188 3.6835938 C 18.629245 3.2719184 19.007042 3 19.441406 3 z M 22 9 L 28 9 L 28 12 L 22 12 L 22 9 z M 17.480469 14 L 32.517578 14 C 34.323083 14 35.917875 15.183656 36.460938 16.949219 L 38.78125 24.482422 C 39.886895 28.072538 40.226764 29.523495 39.865234 33.195312 L 39.525391 36.658203 C 39.011374 36.912017 38.531035 37.23601 38.099609 37.625 L 37.601562 38.072266 C 37.199376 38.432976 36.653527 38.579152 36.125 38.460938 L 36.123047 38.460938 C 33.799875 37.942478 29.660297 36.916016 25.001953 36.916016 C 20.343462 36.916016 16.201352 37.94363 13.878906 38.460938 C 13.348156 38.579509 12.80071 38.434448 12.400391 38.074219 L 11.900391 37.623047 L 11.900391 37.625 C 11.468007 37.23591 10.987205 36.912158 10.472656 36.658203 L 10.132812 33.195312 C 9.7712832 29.523495 10.111152 28.072538 11.216797 24.482422 L 13.537109 16.949219 C 14.082088 15.18266 15.674964 14 17.480469 14 z M 25.007812 17 C 22.337225 16.9969 19.607269 17.544212 18.207031 19.369141 C 17.914693 19.750057 17.805838 20.106212 17.667969 20.568359 C 17.530099 21.030507 17.404389 21.579339 17.283203 22.205078 C 17.040832 23.456555 16.82031 25.011917 16.630859 26.667969 C 16.251958 29.980072 16 33.666737 16 36 L 18 36 C 18 33.814263 18.248042 30.140381 18.619141 26.896484 C 18.80469 25.274536 19.021668 23.752882 19.248047 22.583984 C 19.361236 21.999536 19.477713 21.5034 19.585938 21.140625 C 19.694161 20.77785 19.835307 20.530771 19.792969 20.585938 C 20.423731 19.763866 22.687447 18.997328 25.005859 19 C 27.324272 19.0027 29.586931 19.77762 30.207031 20.585938 C 30.164691 20.530767 30.305842 20.77785 30.414062 21.140625 C 30.522288 21.5034 30.638764 21.999536 30.751953 22.583984 C 30.978332 23.752882 31.19531 25.274536 31.380859 26.896484 C 31.751958 30.140381 32 33.814263 32 36 L 34 36 C 34 33.666737 33.748042 29.980072 33.369141 26.667969 C 33.17969 25.011917 32.959168 23.456555 32.716797 22.205078 C 32.595611 21.579339 32.469901 21.030507 32.332031 20.568359 C 32.194162 20.106212 32.085307 19.750057 31.792969 19.369141 C 30.400069 17.553458 27.6784 17.003078 25.007812 17 z M 7.6484375 38 C 8.730273 38 9.7701061 38.398336 10.5625 39.111328 L 10.564453 39.111328 L 11.0625 39.560547 C 11.607217 40.050707 12.289787 40.28597 13 40.388672 L 13 46.898438 C 12.883198 46.867477 12.758159 46.869893 12.650391 46.814453 L 12.648438 46.814453 L 7.3007812 44.066406 C 6.8259709 43.822433 6.5101079 43.374561 6.4394531 42.867188 L 6.0136719 39.810547 C 5.8799241 38.84521 6.6217442 38 7.6484375 38 z M 42.351562 38 C 43.378256 38 44.118712 38.845424 43.984375 39.810547 L 43.558594 42.867188 C 43.487934 43.374561 43.172076 43.822433 42.697266 44.066406 L 37.349609 46.814453 L 37.347656 46.814453 C 37.241037 46.869453 37.11617 46.867558 37 46.898438 L 37 40.386719 C 37.710597 40.284113 38.392207 40.049606 38.9375 39.560547 L 39.439453 39.111328 C 40.229365 38.39916 41.269728 38 42.351562 38 z M 25.001953 38.916016 C 29.03929 38.916016 32.592299 39.728218 35 40.271484 L 35 47 L 15 47 L 15 40.271484 C 17.408247 39.728771 20.96462 38.916016 25.001953 38.916016 z"/></svg>